<?xml version="1.0" encoding="UTF-8" standalone="no"?>
<!DOCTYPE svg PUBLIC "-//W3C//DTD SVG 1.1//EN" "http://www.w3.org/Graphics/SVG/1.1/DTD/svg11.dtd">
<!-- Created with Vectornator (http://vectornator.io/) -->
<svg height="100%" stroke-miterlimit="10" style="fill-rule:nonzero;clip-rule:evenodd;stroke-linecap:round;stroke-linejoin:round;" version="1.1" viewBox="0 0 1024 1024" width="100%" xml:space="preserve" xmlns="http://www.w3.org/2000/svg" xmlns:xlink="http://www.w3.org/1999/xlink">
<defs>
<linearGradient gradientTransform="matrix(1 0 0 1.00054 0 -8.88178e-15)" gradientUnits="userSpaceOnUse" id="LinearGradient" x1="587.741" x2="587.741" y1="230.507" y2="230.507">
<stop offset="0" stop-color="#ff0046"/>
<stop offset="0.654188" stop-color="#be00c9"/>
<stop offset="1" stop-color="#2d00b9"/>
</linearGradient>
<linearGradient gradientTransform="matrix(1 0 0 1.00054 0 -8.88178e-15)" gradientUnits="userSpaceOnUse" id="LinearGradient_2" x1="89.6865" x2="1024" y1="511.725" y2="511.725">
<stop offset="0" stop-color="#ff0046"/>
<stop offset="0.654188" stop-color="#be00c9"/>
<stop offset="1" stop-color="#2d00b9"/>
</linearGradient>
<linearGradient gradientTransform="matrix(0.91998 0 0 1.14627 -8.67453 -45.4659)" gradientUnits="userSpaceOnUse" id="LinearGradient_3" x1="9.42904" x2="576.402" y1="373.094" y2="373.225">
<stop offset="0" stop-color="#ff0046"/>
<stop offset="0.654188" stop-color="#be00c9"/>
<stop offset="1" stop-color="#2d00b9"/>
</linearGradient>
<linearGradient gradientTransform="matrix(1.01516 0 0 1.14627 -26.5081 -48.3135)" gradientUnits="userSpaceOnUse" id="LinearGradient_4" x1="81.2463" x2="639.368" y1="555.999" y2="555.999">
<stop offset="0" stop-color="#ff0046"/>
<stop offset="0.654188" stop-color="#be00c9"/>
<stop offset="1" stop-color="#2d00b9"/>
</linearGradient>
<linearGradient gradientTransform="matrix(1 0 0 1.00054 0 -8.88178e-15)" gradientUnits="userSpaceOnUse" id="LinearGradient_5" x1="567.335" x2="567.335" y1="235.758" y2="235.758">
<stop offset="0" stop-color="#ff0046"/>
<stop offset="0.654188" stop-color="#be00c9"/>
<stop offset="1" stop-color="#2d00b9"/>
</linearGradient>
</defs>
<clipPath id="ArtboardFrame">
<rect height="1024" width="1024" x="0" y="0"/>
</clipPath>
<g clip-path="url(#ArtboardFrame)" id="Layer-1">
<path d="M587.741 230.631" fill="url(#LinearGradient)" fill-rule="nonzero" opacity="1" stroke="#000000" stroke-linecap="butt" stroke-linejoin="miter" stroke-width="80"/>
<path d="M89.6865 723.258L516.963 723.258L516.924 828.617L516.924 828.617C516.924 828.617 518.455 841.119 528.321 828.143L807.996 471.096C822.697 451.537 801.371 453.704 801.371 453.704L597.161 454.268L596.899 113.245C596.237 96.824 585.6 112.979 585.6 112.979L511.074 223.726L139.344 222.686C139.344 222.686 243.954 10.7266 527.946 0.314522C811.938-10.0976 1014.94 239.894 1023.42 469.442C1031.06 676.366 960.698 768.04 945.776 792.591L990.186 993.364L990.186 993.364L807.69 944.979C807.69 944.979 387.505 1227.83 89.6865 723.258Z" fill="url(#LinearGradient_2)" fill-rule="nonzero" opacity="1" stroke="#000000" stroke-linecap="square" stroke-linejoin="round" stroke-width="1.2"/>
<path d="M72.2471 311.941L524.513 312.365L458.034 451.915L0 452.456L72.2471 311.941Z" fill="url(#LinearGradient_3)" fill-rule="nonzero" opacity="1" stroke="#000000" stroke-linecap="square" stroke-linejoin="round" stroke-width="1.2"/>
<path d="M134.405 514.032L55.9702 663.987L622.555 663.477L622.268 515.085L134.405 514.032Z" fill="url(#LinearGradient_4)" fill-rule="nonzero" opacity="1" stroke="#000000" stroke-linecap="square" stroke-linejoin="round" stroke-width="1.2"/>
<path d="M567.335 235.884" fill="url(#LinearGradient_5)" fill-rule="nonzero" opacity="1" stroke="#000000" stroke-linecap="butt" stroke-linejoin="miter" stroke-width="80"/>
</g>
</svg>
